<?xml version="1.0" standalone="no"?>
<!DOCTYPE svg PUBLIC "-//W3C//DTD SVG 20010904//EN"
 "http://www.w3.org/TR/2001/REC-SVG-20010904/DTD/svg10.dtd">
<svg version="1.0" xmlns="http://www.w3.org/2000/svg"
 width="909.000000pt" height="274.000000pt" viewBox="0 0 909.000000 274.000000"
 preserveAspectRatio="xMidYMid meet">

<g transform="translate(0.000000,274.000000) scale(0.100000,-0.100000)"
fill="#000000" stroke="none">
<path d="M931 2440 c-150 -40 -264 -110 -300 -185 -13 -28 -27 -58 -32 -67 -5
-10 -9 -27 -9 -37 0 -11 -4 -23 -10 -26 -5 -3 -10 -15 -10 -26 0 -11 -11 -37
-25 -59 -14 -22 -25 -48 -25 -59 0 -11 -4 -23 -10 -26 -6 -4 -10 -58 -10 -129
l0 -123 -53 -67 c-29 -36 -53 -75 -54 -86 -1 -10 12 -30 28 -44 28 -24 29 -27
29 -121 0 -67 4 -100 13 -110 8 -7 20 -40 26 -73 20 -90 37 -97 224 -94 139 3
147 2 147 -16 0 -10 32 -82 70 -158 79 -157 94 -203 77 -243 -6 -14 -14 -28
-18 -31 -3 -3 -22 -40 -43 -83 -20 -42 -41 -77 -46 -77 -6 0 -10 -8 -10 -18 0
-10 -3 -22 -6 -25 -11 -10 -43 -110 -44 -133 0 -11 -6 -26 -12 -33 -14 -15 19
-14 292 10 184 16 564 7 697 -16 56 -10 109 -15 118 -11 24 9 14 51 -35 152
-58 115 -131 199 -243 277 -51 36 -109 83 -127 104 -45 50 -93 158 -120 267
-20 82 -21 96 -10 165 19 117 43 167 136 281 110 135 170 232 200 321 92 273
-112 535 -474 608 -85 17 -247 13 -331 -9z m-181 -285 c22 -4 40 -10 40 -15 0
-5 22 -22 49 -38 79 -49 145 -131 185 -232 27 -67 33 -228 12 -310 -16 -63
-65 -181 -94 -228 -35 -54 -72 49 -82 227 l-7 126 -58 105 c-107 191 -110 197
-114 288 -1 45 0 90 4 100 6 16 7 16 16 0 5 -9 27 -19 49 -23z m427 -652 c-3
-10 -5 -2 -5 17 0 19 2 27 5 18 2 -10 2 -26 0 -35z"/>
<path d="M2658 1890 c-29 -9 -67 -24 -84 -33 -45 -23 -113 -96 -137 -147 -11
-25 -24 -47 -27 -50 -20 -15 -42 -183 -35 -264 11 -136 116 -287 234 -338 101
-43 259 -41 355 6 59 29 124 93 154 153 28 53 45 121 38 149 -6 23 -10 24
-100 24 l-95 0 -15 -54 c-12 -39 -27 -64 -57 -91 -41 -37 -41 -37 -120 -33
-70 3 -81 6 -110 33 -83 79 -105 232 -51 369 15 38 34 72 42 76 8 4 25 12 37
18 42 21 116 25 158 8 50 -21 72 -42 96 -89 l20 -38 92 3 92 3 -3 40 c-4 55
-33 112 -84 163 -51 53 -97 77 -184 98 -79 18 -145 16 -216 -6z"/>
<path d="M7003 1892 c-20 -3 -22 -10 -28 -132 l-7 -128 -47 20 c-60 26 -166
26 -225 0 -50 -23 -111 -88 -140 -151 -17 -37 -21 -65 -21 -147 1 -93 3 -105
33 -167 40 -81 116 -142 190 -153 51 -8 177 10 198 27 10 8 19 6 36 -5 24 -17
68 -20 131 -10 l37 7 0 417 0 418 -67 4 c-38 2 -78 2 -90 0z m-100 -366 c18
-7 40 -22 50 -33 26 -30 39 -120 28 -195 -9 -53 -16 -68 -46 -95 -57 -53 -138
-44 -183 21 -19 27 -22 46 -22 122 0 104 16 141 77 173 46 24 54 25 96 7z"/>
<path d="M5028 1883 c-17 -4 -18 -32 -18 -413 0 -353 2 -409 15 -420 12 -10
69 -12 253 -8 224 5 240 7 292 30 168 76 213 268 91 387 l-48 47 24 34 c44 63
55 101 50 163 -7 76 -40 125 -110 161 l-52 26 -240 -1 c-132 -1 -248 -3 -257
-6z m356 -163 c37 -4 73 -13 79 -19 6 -6 13 -33 17 -61 9 -70 -5 -81 -119 -89
-138 -10 -135 -11 -139 92 l-3 87 48 0 c26 -1 79 -5 117 -10z m27 -318 c66 -8
86 -18 107 -59 19 -35 14 -71 -15 -102 -33 -35 -26 -34 -170 -32 l-113 1 0
100 0 100 63 -1 c34 0 92 -3 128 -7z"/>
<path d="M6282 1878 c-7 -7 -12 -40 -12 -80 l0 -68 90 0 90 0 0 80 0 80 -78 0
c-47 0 -83 -5 -90 -12z"/>
<path d="M3403 1666 c-94 -30 -165 -99 -167 -165 l-1 -36 92 -3 92 -3 16 30
c19 37 43 51 90 51 55 0 75 -15 75 -56 0 -42 -12 -48 -126 -63 -100 -14 -139
-27 -191 -63 -105 -71 -86 -256 31 -309 58 -26 168 -25 240 2 51 19 58 19 78
5 24 -17 173 -23 181 -8 2 4 -1 113 -6 242 -8 210 -11 240 -30 279 -12 25 -34
54 -48 64 -59 42 -237 60 -326 33z m207 -363 c-1 -45 -21 -100 -45 -120 -20
-18 -39 -23 -80 -23 -66 0 -87 17 -83 68 5 56 63 89 166 91 34 1 42 -2 42 -16z"/>
<path d="M4158 1647 c-66 -32 -67 -32 -72 -11 -5 17 -16 23 -52 28 -70 9 -109
7 -122 -6 -17 -17 -17 -589 0 -606 12 -12 116 -16 154 -6 20 5 21 14 28 172
10 239 27 271 146 280 l70 5 0 82 c0 66 -3 84 -16 89 -32 12 -71 5 -136 -27z"/>
<path d="M4564 1670 c-70 -10 -112 -33 -172 -92 -74 -74 -97 -154 -80 -282 11
-84 34 -131 87 -179 74 -67 114 -82 221 -82 80 0 102 4 140 23 59 31 114 84
135 132 27 60 17 70 -63 70 -61 0 -71 -3 -93 -26 -34 -37 -72 -54 -118 -54
-60 0 -87 17 -110 69 l-20 46 216 3 215 2 -4 83 c-4 78 -7 87 -47 148 -48 74
-115 125 -176 134 -22 3 -49 7 -60 9 -11 2 -43 0 -71 -4z m99 -139 c25 -10 49
-41 61 -78 7 -23 7 -23 -108 -23 -115 0 -116 0 -116 23 0 23 27 54 65 75 25
14 66 15 98 3z"/>
<path d="M6105 1668 c-16 -6 -46 -22 -65 -35 -43 -29 -48 -29 -52 0 -3 21 -8
22 -91 25 l-87 3 2 -308 3 -308 77 1 c113 2 108 -4 109 121 1 280 21 318 172
338 l47 6 0 75 c0 71 -1 75 -26 84 -31 12 -50 12 -89 -2z"/>
<path d="M7449 1667 c-88 -25 -158 -95 -184 -184 -24 -81 -17 -222 13 -279 26
-50 104 -121 146 -133 52 -15 157 -6 210 18 l49 21 -7 -39 c-14 -92 -36 -111
-126 -111 -57 0 -80 7 -80 25 0 7 -8 23 -18 35 -16 20 -23 21 -100 15 l-82 -8
0 -35 c0 -30 8 -44 53 -86 72 -70 130 -90 250 -84 150 7 228 55 271 167 15 39
17 84 16 349 0 167 -3 308 -6 313 -8 14 -162 11 -166 -3 -3 -9 -18 -8 -59 5
-79 24 -128 28 -180 14z m195 -162 c30 -29 41 -76 40 -163 0 -58 -3 -66 -36
-98 -43 -44 -98 -54 -151 -29 -32 15 -37 23 -48 73 -21 94 -17 162 9 199 24
34 40 39 114 42 38 1 52 -4 72 -24z"/>
<path d="M8176 1669 c-90 -18 -169 -92 -213 -200 -26 -64 -24 -199 4 -259 66
-144 253 -218 406 -160 73 27 119 67 146 125 32 68 30 72 -41 77 -64 5 -96 -3
-112 -29 -22 -39 -142 -57 -183 -28 -11 8 -28 35 -36 60 l-16 45 212 2 212 3
3 64 c3 53 -2 73 -24 120 -35 71 -104 145 -156 166 -51 20 -140 27 -202 14z
m160 -175 c19 -19 34 -39 34 -44 0 -14 -61 -30 -119 -30 -106 0 -128 20 -86
76 24 31 30 34 82 34 51 0 59 -3 89 -36z"/>
<path d="M6264 1613 c-4 -26 -4 -140 -1 -253 4 -113 7 -229 7 -257 l0 -53 90
0 90 0 0 305 0 305 -89 0 -90 0 -7 -47z"/>
</g>
</svg>
